<?xml version="1.0" standalone="no"?>
<!DOCTYPE svg PUBLIC "-//W3C//DTD SVG 20010904//EN"
 "http://www.w3.org/TR/2001/REC-SVG-20010904/DTD/svg10.dtd">
<svg version="1.0" xmlns="http://www.w3.org/2000/svg"
 width="397.000000pt" height="397.000000pt" viewBox="0 0 397.000000 397.000000"
 preserveAspectRatio="xMidYMid meet">

<g transform="translate(0.000000,397.000000) scale(0.100000,-0.100000)"
fill="#000000" stroke="none">
<path d="M1692 3944 c-131 -21 -303 -67 -413 -110 -90 -35 -306 -141 -341
-167 -15 -12 -12 -28 34 -205 l51 -191 -29 -22 c-79 -59 -283 -281 -348 -380
l-69 -105 -176 48 c-97 26 -180 48 -184 48 -12 0 -72 -138 -112 -256 -19 -57
-47 -161 -62 -231 -26 -121 -27 -143 -27 -388 0 -245 1 -267 27 -388 35 -166
85 -315 153 -456 103 -217 198 -354 364 -525 183 -189 328 -295 555 -406 163
-80 304 -129 482 -167 120 -26 144 -27 383 -28 226 0 268 3 365 22 321 65 600
191 850 382 82 62 255 231 325 316 226 276 372 611 426 975 25 174 15 500 -20
668 -66 312 -207 609 -403 852 -72 89 -243 257 -328 321 -240 183 -519 312
-817 375 -108 23 -152 26 -358 30 -176 2 -259 -1 -328 -12z m433 -364 c215
-21 443 -88 618 -184 225 -122 438 -317 575 -525 45 -68 82 -127 82 -131 0 -4
-54 -118 -120 -254 -66 -136 -120 -251 -120 -256 0 -4 95 -100 211 -211 l211
-204 -7 -45 c-35 -241 -118 -463 -251 -667 l-54 -83 -288 0 -289 0 -12 -42
c-7 -24 -47 -148 -89 -275 l-76 -233 -61 -20 c-228 -76 -545 -89 -813 -34
-507 104 -954 484 -1147 973 -163 412 -148 881 40 1278 24 51 48 93 54 93 5 0
20 -4 33 -9 21 -8 33 -44 123 -380 55 -204 102 -371 105 -371 3 0 50 167 105
371 84 314 103 372 120 379 11 4 178 49 370 100 193 51 353 96 357 99 4 4
-160 51 -365 107 -408 110 -387 100 -402 184 -6 35 -6 35 82 91 306 196 655
282 1008 249z"/>
<path d="M1694 2349 c-159 -116 -288 -213 -288 -217 1 -4 50 -157 110 -339
l108 -333 360 0 361 0 105 326 c58 179 106 331 108 338 2 8 -115 100 -275 216
-153 112 -283 207 -289 211 -6 5 -121 -71 -300 -202z"/>
<path d="M652 3450 c-116 -102 -325 -350 -309 -366 5 -5 279 64 294 75 10 7
106 352 99 358 -2 2 -40 -28 -84 -67z"/>
</g>
</svg>
