<?xml version="1.0" standalone="no"?>
<!DOCTYPE svg PUBLIC "-//W3C//DTD SVG 20010904//EN"
 "http://www.w3.org/TR/2001/REC-SVG-20010904/DTD/svg10.dtd">
<svg version="1.0" xmlns="http://www.w3.org/2000/svg"
 width="530.000000pt" height="530.000000pt" viewBox="0 0 530.000000 530.000000"
 preserveAspectRatio="xMidYMid meet">

<g transform="translate(0.000000,530.000000) scale(0.100000,-0.100000)"
fill="#000000" stroke="none">
<path d="M2455 5290 c-382 -32 -755 -142 -1077 -321 -467 -259 -853 -661
-1092 -1136 -190 -379 -277 -753 -277 -1183 0 -437 90 -813 287 -1201 132
-259 296 -481 515 -694 421 -409 923 -651 1519 -731 167 -22 472 -22 645 0
878 112 1637 646 2035 1430 141 279 217 526 266 862 26 179 24 513 -5 704 -88
584 -339 1086 -746 1496 -413 416 -955 683 -1535 758 -151 20 -398 27 -535 16z
m385 -501 c424 -38 837 -204 1160 -466 90 -73 260 -244 331 -333 62 -77 169
-237 169 -254 0 -6 -82 -179 -182 -384 l-182 -374 114 -112 c63 -61 208 -202
322 -311 l208 -200 -11 -65 c-38 -242 -140 -519 -269 -734 l-67 -111 -449 -3
-449 -3 -134 -417 c-74 -229 -140 -422 -145 -429 -13 -13 -200 -56 -326 -74
-130 -19 -452 -16 -590 5 -454 70 -851 265 -1178 580 -180 173 -314 354 -426
576 -109 214 -175 420 -212 665 -23 149 -23 461 0 610 44 288 141 563 283 798
19 32 33 60 30 63 -2 3 -102 31 -221 63 -120 33 -220 61 -223 64 -3 4 6 9 20
12 13 4 145 39 293 79 l268 72 77 288 c43 159 80 290 83 293 5 6 5 7 61 -202
25 -93 48 -178 51 -187 4 -14 16 -8 67 33 415 337 984 508 1527 458z"/>
<path d="M1124 4148 c-105 -109 -194 -216 -248 -300 l-17 -27 60 -17 c54 -15
62 -20 69 -48 5 -17 39 -147 77 -288 38 -142 70 -257 71 -255 1 1 36 130 78
287 42 156 78 285 79 287 2 1 133 37 291 80 159 42 285 78 280 80 -8 2 -419
113 -535 144 -36 9 -37 11 -59 92 -12 45 -23 83 -25 85 -1 1 -55 -53 -121
-120z"/>
<path d="M2280 3144 c-201 -146 -373 -272 -383 -279 -17 -12 -8 -42 130 -469
l148 -456 476 0 476 0 147 456 c82 251 144 459 140 463 -24 21 -747 543 -757
546 -7 3 -176 -115 -377 -261z"/>
<path d="M891 3198 l-23 -86 -72 -17 c-39 -10 -74 -21 -78 -24 -5 -4 26 -16
68 -26 84 -21 80 -17 111 -125 l19 -65 18 75 c10 41 23 80 27 86 5 6 42 19 84
29 43 11 70 22 63 26 -7 5 -43 15 -80 24 l-67 17 -15 51 c-8 29 -19 68 -23 87
-9 33 -10 32 -32 -52z"/>
</g>
</svg>
