<?xml version="1.0" standalone="no"?>
<!DOCTYPE svg PUBLIC "-//W3C//DTD SVG 20010904//EN"
 "http://www.w3.org/TR/2001/REC-SVG-20010904/DTD/svg10.dtd">
<svg version="1.0" xmlns="http://www.w3.org/2000/svg"
 width="55.000000pt" height="56.000000pt" viewBox="0 0 55.000000 56.000000"
 preserveAspectRatio="xMidYMid meet">

<g transform="translate(0.000000,56.000000) scale(0.100000,-0.100000)"
fill="#000000" stroke="none">
<path d="M242 448 l-32 -105 -95 -29 c-52 -15 -95 -31 -95 -35 0 -3 43 -19 95
-34 l95 -28 32 -105 32 -105 33 105 33 105 95 28 c52 15 95 31 95 34 0 4 -43
20 -95 35 l-95 29 -33 105 -33 105 -32 -105z m48 -108 c9 -34 15 -40 45 -46
43 -8 45 -20 6 -29 -35 -7 -46 -19 -56 -60 l-7 -30 -18 42 c-14 32 -25 43 -49
48 -40 9 -39 21 2 29 29 5 36 12 46 46 6 22 14 40 16 40 2 0 9 -18 15 -40z"/>
</g>
</svg>
